<?xml version="1.0" standalone="no"?><!DOCTYPE svg PUBLIC "-//W3C//DTD SVG 1.1//EN" "http://www.w3.org/Graphics/SVG/1.1/DTD/svg11.dtd"><svg t="1654324224510" class="icon" viewBox="0 0 1024 1024" version="1.1" xmlns="http://www.w3.org/2000/svg" p-id="23752" xmlns:xlink="http://www.w3.org/1999/xlink" width="200" height="200"><defs><style type="text/css">@font-face { font-family: feedback-iconfont; src: url("//at.alicdn.com/t/font_1031158_u69w8yhxdu.woff2?t=1630033759944") format("woff2"), url("//at.alicdn.com/t/font_1031158_u69w8yhxdu.woff?t=1630033759944") format("woff"), url("//at.alicdn.com/t/font_1031158_u69w8yhxdu.ttf?t=1630033759944") format("truetype"); }
</style></defs><path d="M176 848h728c4.4 0 8 3.6 8 8v48c0 4.4-3.6 8-8 8H112V120c0-4.4 3.6-8 8-8h48c4.4 0 8 3.6 8 8v728zM768.5 389c-77 0-139.5-62.5-139.5-139.5S691.5 110 768.5 110 908 172.5 908 249.5 845.5 389 768.5 389z m0-64c41.7 0 75.5-33.8 75.5-75.5S810.2 174 768.5 174 693 207.8 693 249.5s33.8 75.5 75.5 75.5z" p-id="23753" fill="#13227a"></path><path d="M794 801c-63 0-114-51-114-114s51-114 114-114 114 51 114 114-51 114-114 114z m0-64c27.6 0 50-22.4 50-50s-22.4-50-50-50-50 22.4-50 50 22.4 50 50 50zM449.5 738c-114 0-206.5-92.5-206.5-206.5S335.5 325 449.5 325 656 417.5 656 531.5 563.5 738 449.5 738z m0-64c78.7 0 142.5-63.8 142.5-142.5S528.2 389 449.5 389 307 452.8 307 531.5 370.8 674 449.5 674z" p-id="23754" fill="#13227a"></path></svg>