<?xml version="1.0" standalone="no"?><!DOCTYPE svg PUBLIC "-//W3C//DTD SVG 1.1//EN" "http://www.w3.org/Graphics/SVG/1.1/DTD/svg11.dtd"><svg t="1654324905288" class="icon" viewBox="0 0 1024 1024" version="1.1" xmlns="http://www.w3.org/2000/svg" p-id="12431" xmlns:xlink="http://www.w3.org/1999/xlink" width="200" height="200"><defs><style type="text/css">@font-face { font-family: feedback-iconfont; src: url("//at.alicdn.com/t/font_1031158_u69w8yhxdu.woff2?t=1630033759944") format("woff2"), url("//at.alicdn.com/t/font_1031158_u69w8yhxdu.woff?t=1630033759944") format("woff"), url("//at.alicdn.com/t/font_1031158_u69w8yhxdu.ttf?t=1630033759944") format("truetype"); }
</style></defs><path d="M736.456 516.1c-52.99 0-95.981 42.99-95.981 95.98 0 7.599 0.9 14.898 2.5 21.996l-222.657 98.58c-17.397-17.596-41.592-28.594-68.287-28.594-52.99 0-95.981 42.992-95.981 95.982s42.992 95.981 95.981 95.981c24.795 0 47.391-9.398 64.488-24.895l161.268 75.185c8.498 44.292 47.49 77.685 94.282 77.685 52.99 0 95.981-42.992 95.981-95.981s-42.992-95.982-95.981-95.982c-35.793 0-66.987 19.597-83.484 48.691l-141.572-65.987c0.7-4.8 1.1-9.698 1.1-14.597 0-3.2-0.2-6.399-0.5-9.498l230.755-102.08c16.096 12.297 36.292 19.696 58.188 19.696 52.99 0 95.981-42.992 95.981-95.982s-43.091-96.18-96.08-96.18zM352.031 832.036c-17.596 0-31.994-14.397-31.994-31.993s14.398-31.994 31.994-31.994 31.994 14.397 31.994 31.994-14.397 31.993-31.994 31.993z m319.938 63.988c17.596 0 31.994 14.397 31.994 31.994s-14.398 31.993-31.994 31.993-31.994-14.397-31.994-31.993 14.397-31.994 31.994-31.994z m64.487-251.95c-17.596 0-31.994-14.398-31.994-31.995s14.398-31.993 31.994-31.993 31.994 14.397 31.994 31.993-14.397 31.994-31.994 31.994zM419.418 468.108c30.494 12.897 57.889 31.393 81.384 54.889a252.48 252.48 0 0 1 35.693 44.491l0.1-0.1c5.8 7.999 15.297 13.298 25.895 13.298 17.697 0 31.994-14.298 31.994-31.994 0-7.099-2.3-13.697-6.199-18.996-34.393-52.89-84.183-95.082-142.872-120.177 59.488-40.292 98.48-108.379 98.48-185.564C543.894 100.28 443.614 0 319.939 0S95.98 100.28 95.98 223.956c0 77.185 39.093 145.272 98.481 185.464C80.084 458.31 0 571.788 0 703.963c0 22.095 2.2 43.691 6.499 64.587h0.1c2.4 15.297 15.597 27.095 31.594 27.095 17.696 0 31.993-14.298 31.993-31.994 0-2.8-0.4-5.5-1-8.099-3.399-16.796-5.198-34.093-5.198-51.59 0-34.593 6.798-68.086 20.096-99.58 12.897-30.494 31.393-57.889 54.889-81.384s50.89-41.992 81.384-54.89c31.494-13.297 64.987-20.096 99.58-20.096 34.494 0 67.987 6.8 99.481 20.097z m-259.35-244.053c0-42.691 16.597-82.884 46.892-113.078 30.194-30.294 70.386-46.89 113.077-46.89s82.884 16.596 113.078 46.89c30.294 30.194 46.891 70.387 46.891 113.078s-16.597 82.884-46.89 113.078c-30.195 30.194-70.387 46.891-113.079 46.891s-82.883-16.597-113.077-46.89c-30.195-30.195-46.891-70.387-46.891-113.079z" p-id="12432" fill="#13227a"></path><path d="M1023.9 703.963c0-132.175-80.184-245.553-194.462-294.343 59.388-40.292 98.48-108.379 98.48-185.564C927.919 100.38 827.639 0.1 703.964 0.1c-40.093 0-77.685 10.498-110.279 28.994a31.911 31.911 0 0 0-17.696 28.595c0 17.696 14.297 31.993 31.993 31.993 5.9 0 11.398-1.6 16.197-4.399 23.995-13.797 51.29-21.196 79.785-21.196 42.691 0 82.883 16.597 113.077 46.891 30.195 30.194 46.891 70.387 46.891 113.078 0 42.692-16.596 82.884-46.89 113.078-30.195 30.194-70.387 46.891-113.078 46.891-9.399 0-18.597-0.8-27.595-2.4-1.8-0.3-3.8-0.5-5.699-0.5-17.697 0-31.994 14.298-31.994 31.994 0 16.397 12.298 29.794 28.095 31.794 11.997 2 24.195 3.1 36.693 3.1h0.5c34.593 0 68.086 6.798 99.58 20.096 30.494 12.897 57.889 31.393 81.384 54.889s41.992 50.89 54.89 81.384c13.297 31.494 20.096 64.987 20.096 99.58 0 17.897-1.8 35.594-5.4 52.79h0.1c-0.5 2.2-0.8 4.5-0.8 6.899 0 17.696 14.298 31.994 31.994 31.994 16.197 0 29.495-11.998 31.694-27.495a323.525 323.525 0 0 0 6.399-64.187z" p-id="12433" fill="#13227a"></path></svg>