<?xml version="1.0" standalone="no"?><!DOCTYPE svg PUBLIC "-//W3C//DTD SVG 1.1//EN" "http://www.w3.org/Graphics/SVG/1.1/DTD/svg11.dtd"><svg t="1654323976487" class="icon" viewBox="0 0 1024 1024" version="1.1" xmlns="http://www.w3.org/2000/svg" p-id="19966" xmlns:xlink="http://www.w3.org/1999/xlink" width="200" height="200"><defs><style type="text/css">@font-face { font-family: feedback-iconfont; src: url("//at.alicdn.com/t/font_1031158_u69w8yhxdu.woff2?t=1630033759944") format("woff2"), url("//at.alicdn.com/t/font_1031158_u69w8yhxdu.woff?t=1630033759944") format("woff"), url("//at.alicdn.com/t/font_1031158_u69w8yhxdu.ttf?t=1630033759944") format("truetype"); }
</style></defs><path d="M289.062341 890.202213c0 0.422297-0.633446 0.563063-1.266891 0a14.076569 14.076569 0 0 1-2.744931-1.337274 38.147502 38.147502 0 0 1-3.519142-2.041102 53.913259 53.913259 0 0 1-4.293354-3.589525 37.86597 37.86597 0 0 1-4.082205-4.43412H267.454808a52.927899 52.927899 0 0 1-7.038285-0.492679 21.818682 21.818682 0 0 1-7.038284-2.111486 14.076569 14.076569 0 0 1-5.489862-4.786033 14.991546 14.991546 0 0 1-2.181868-8.586707v-23.859784a19.214516 19.214516 0 0 1 4.997182-14.85078 23.719018 23.719018 0 0 1 16.117671-4.504503 35.965633 35.965633 0 0 1 8.375559 0.914977 17.877242 17.877242 0 0 1 7.038284 3.167228 14.710014 14.710014 0 0 1 4.504502 5.841777 22.52251 22.52251 0 0 1 1.618806 9.079386v21.748299a20.481408 20.481408 0 0 1-2.111486 10.275896 14.076569 14.076569 0 0 1-5.771393 5.560244 19.214516 19.214516 0 0 0 1.759571 1.97072q1.126126 1.055743 2.533783 2.252251t2.956079 2.181868a16.188054 16.188054 0 0 0 3.237611 1.689188v1.126126z m-8.234793-50.886796a14.076569 14.076569 0 0 0-3.378376-10.557427 14.076569 14.076569 0 0 0-10.205513-3.307993 14.569249 14.569249 0 0 0-11.40202 3.589525 15.765757 15.765757 0 0 0-3.167228 10.627809v21.114853a11.542786 11.542786 0 0 0 1.337274 5.701011 10.979724 10.979724 0 0 0 3.378376 3.800673 14.076569 14.076569 0 0 0 4.574885 2.041103 21.53715 21.53715 0 0 0 5.489862 0.422297 25.337824 25.337824 0 0 0 5.278713-0.49268 9.783215 9.783215 0 0 0 7.038285-6.19369 18.440305 18.440305 0 0 0 1.126125-7.038285zM330.236305 878.72981c-0.351914 0-0.633446 0-0.774211-0.98536a25.337824 25.337824 0 0 1 0-4.786034 19.988728 19.988728 0 0 1-7.038285 5.349097 21.114853 21.114853 0 0 1-7.601347 1.266891 16.469586 16.469586 0 0 1-4.715651-0.703829 10.627809 10.627809 0 0 1-4.082204-2.252251A10.838958 10.838958 0 0 1 302.64623 872.747268a16.117671 16.117671 0 0 1-1.055743-6.19369V837.555846q0-1.900337 0.914977-1.900337h4.997182q1.126126 0 1.126126 1.97072v26.675098a10.838958 10.838958 0 0 0 2.041102 6.615987 8.305176 8.305176 0 0 0 7.038285 2.744931 11.402021 11.402021 0 0 0 4.926799-0.98536 9.783215 9.783215 0 0 0 3.378376-2.533782 11.402021 11.402021 0 0 0 1.97072-3.44876 10.838958 10.838958 0 0 0 0.703828-3.659908V837.555846a8.445941 8.445941 0 0 1 0-1.618806s0-0.49268 0.703829-0.49268h4.71565c0.844594 0 1.266891 0.633446 1.266892 1.97072v39.484776a2.815314 2.815314 0 0 1 0 1.126125s-0.351914 0.351914-0.774212 0.351914zM375.492474 878.72981a0.98536 0.98536 0 0 1-0.703829 0V873.732628a9.290535 9.290535 0 0 1-2.885696 3.026462 17.032648 17.032648 0 0 1-4.152588 2.111485 18.932985 18.932985 0 0 1-6.404839 0.914977 14.710014 14.710014 0 0 1-5.841776-1.196508 14.076569 14.076569 0 0 1-5.067565-3.800674 19.566431 19.566431 0 0 1-3.589525-7.038284 33.643 33.643 0 0 1-1.337274-10.205512 31.461131 31.461131 0 0 1 3.871057-16.8215 12.246615 12.246615 0 0 1 10.979723-6.193691 27.378926 27.378926 0 0 1 4.786034 0.351915 12.809678 12.809678 0 0 1 3.659908 1.196508 14.076569 14.076569 0 0 1 3.096845 2.181868 32.868788 32.868788 0 0 1 3.026462 3.237611v-4.715651q0-1.055743 0.422297-1.055742H381.404633a2.956079 2.956079 0 0 1 0 1.126125v39.273627a9.220153 9.220153 0 0 1 0 1.689189s-0.351914 0.49268-0.914977 0.49268z m-1.759571-28.153138a13.302358 13.302358 0 0 0-0.563063-3.519142 12.457763 12.457763 0 0 0-1.900337-3.871057 12.105849 12.105849 0 0 0-3.378376-3.167228 9.009004 9.009004 0 0 0-4.997182-1.337274 9.220153 9.220153 0 0 0-7.742113 3.519142 19.073751 19.073751 0 0 0-2.744931 11.542787v7.038284a18.932985 18.932985 0 0 0 2.604165 10.62781 8.868238 8.868238 0 0 0 7.953261 3.941439 9.14977 9.14977 0 0 0 4.504502-1.126125 12.105849 12.105849 0 0 0 3.378377-2.674548 13.231975 13.231975 0 0 0 2.111485-3.167228 7.038284 7.038284 0 0 0 0.703829-2.533783zM392.102825 878.72981h-1.055743a2.744931 2.744931 0 0 1 0-1.407657v-57.362018a0.98536 0.98536 0 0 1 1.126126-1.126126h5.560244a4.363736 4.363736 0 0 1 0 1.126126v56.869338a12.809678 12.809678 0 0 1 0 1.548422s0 0.351914-0.563062 0.351915zM409.346622 826.153825a1.548423 1.548423 0 0 1-1.126126 0v-4.926799a2.674548 2.674548 0 0 1 0-1.337274s0.633446-0.422297 1.266891-0.422297H415.188398a1.407657 1.407657 0 0 1 0 0.633445v4.504502a4.574885 4.574885 0 0 1 0 1.266892h-0.633446z m0.703828 52.575985c-0.914977 0-1.47804 0-1.689188-0.703829a6.545605 6.545605 0 0 1 0-2.463399v-37.021376a4.434119 4.434119 0 0 1 0.351914-2.111486c0-0.422297 0.844594-0.633446 1.829954-0.633445h2.604165c1.266891 0 1.97072 0 2.181869 0.563062a5.137948 5.137948 0 0 1 0 2.111486v37.021376a7.742113 7.742113 0 0 1 0 2.463399c0 0.422297-0.774211 0.703828-1.759572 0.703829zM435.951337 840.652691v28.153138a6.052925 6.052925 0 0 0 1.337274 4.152587 4.434119 4.434119 0 0 0 3.519142 1.47804h2.533783l2.181868-0.422297s0.351914 0 0.49268 0.633446a6.052925 6.052925 0 0 1 0 1.407657v2.181868a23.226339 23.226339 0 0 1-3.378377 0.633445 33.220702 33.220702 0 0 1-4.574885 0 11.050107 11.050107 0 0 1-4.645268-0.844594 7.038284 7.038284 0 0 1-2.815313-2.252251A8.516324 8.516324 0 0 1 429.33535 872.747268a17.454945 17.454945 0 0 1-0.351915-3.589525v-28.716201h-5.419479v-3.800673c0-0.49268 0-0.703828 0.844594-0.703829h4.9268v-9.431301q0-0.633446 0.492679-0.703828h1.196509l3.800673-0.844594c0.703828 0 1.055743 0 1.055743 0.914977v10.346278h9.64245c0.633446 0 0.914977 0 0.914977 0.844594v3.167228c0 0.422297 0 0.633446-1.055743 0.633445zM468.045914 893.862121a3.378377 3.378377 0 0 1-0.844594 1.126126 1.900337 1.900337 0 0 1-1.126126 0h-3.026462s-0.422297 0 0 0l5.841776-15.34346-16.610351-43.778129h6.615987s0.633446 0 0.844594 0.914976l11.824318 33.783766 12.528146-33.431851a2.252251 2.252251 0 0 1 0.774212-1.126126 1.548423 1.548423 0 0 1 0.774211 0h4.293353s0.351914 0 0 0.633446zM563.062753 828.124545l-4.363736-1.618806a22.381744 22.381744 0 0 0-7.038284-0.914977 19.003368 19.003368 0 0 0-13.231975 3.730291 14.780397 14.780397 0 0 0-3.941439 11.261255v21.114853a12.176232 12.176232 0 0 0 1.337274 6.052925 11.331638 11.331638 0 0 0 3.519142 3.871056 13.37274 13.37274 0 0 0 4.856416 2.041103 26.534332 26.534332 0 0 0 5.419479 0.563063 32.446491 32.446491 0 0 0 8.375559-0.914977 33.572617 33.572617 0 0 0 5.630627-2.041103s0.351914 0 0.49268 0.49268a12.387381 12.387381 0 0 1 0.351914 1.47804v1.759571a5.067565 5.067565 0 0 1 0 1.407657c0 0.422297-0.563063 0.774211-1.689188 1.126125a31.813046 31.813046 0 0 1-4.152588 0.914977l-5.20833 0.703829h-4.926799a25.126675 25.126675 0 0 1-16.258437-4.43412 15.273077 15.273077 0 0 1-5.349096-12.457763v-22.804041a30.405389 30.405389 0 0 1 0.914977-7.460582 13.37274 13.37274 0 0 1 3.519142-6.19369 17.595711 17.595711 0 0 1 7.038284-4.152588 39.273627 39.273627 0 0 1 12.035467-1.548423 43.003918 43.003918 0 0 1 5.982541 0.351915 29.912709 29.912709 0 0 1 4.222971 0.914977 12.176232 12.176232 0 0 1 2.674548 1.126125l1.337274 0.914977v0.914977a8.938621 8.938621 0 0 1-0.49268 1.548423 9.079387 9.079387 0 0 1-0.774211 1.478039c-0.281531 0.563063-0.281531 0.774211-0.281532 0.774212zM590.723211 879.22249a31.249983 31.249983 0 0 1-8.586707-1.055743 13.302358 13.302358 0 0 1-6.123307-3.589525 16.188054 16.188054 0 0 1-3.730291-7.038285 38.35865 38.35865 0 0 1-1.266891-10.627809 35.684102 35.684102 0 0 1 1.337274-10.62781 18.369922 18.369922 0 0 1 3.941439-7.038284 14.498866 14.498866 0 0 1 6.334456-3.941439 28.153138 28.153138 0 0 1 8.445941-1.196509 17.877242 17.877242 0 0 1 14.076569 5.278714 26.112035 26.112035 0 0 1 4.786034 17.595711 24.633995 24.633995 0 0 1-4.856417 16.469585 17.80686 17.80686 0 0 1-14.3581 5.771394z m12.035467-26.745481a17.525328 17.525328 0 0 0-2.674549-10.064747 10.346278 10.346278 0 0 0-9.220152-3.941439 12.176232 12.176232 0 0 0-8.797856 3.378376 14.710014 14.710014 0 0 0-3.519142 10.909341v8.234793a18.018008 18.018008 0 0 0 0.98536 6.404839 11.894701 11.894701 0 0 0 2.674548 4.293353 10.205512 10.205512 0 0 0 3.941439 2.4634 14.780397 14.780397 0 0 0 4.856417 0.774211 10.416661 10.416661 0 0 0 8.657089-4.011822 17.384563 17.384563 0 0 0 3.167228-10.909341zM648.014846 878.72981c-0.774211 0-1.126126-0.633446-1.126125-1.900337v-26.745481a10.627809 10.627809 0 0 0-2.111485-6.615987 8.586707 8.586707 0 0 0-7.038285-2.815314 10.909341 10.909341 0 0 0-4.926799 1.055743 10.416661 10.416661 0 0 0-3.378376 2.604165 10.698192 10.698192 0 0 0-1.900337 3.448759 11.331638 11.331638 0 0 0-0.633446 3.519142v25.267441a8.375558 8.375558 0 0 1 0 1.618806s0 0.49268-0.703828 0.49268h-4.715651c-0.914977 0-1.337274-0.633446-1.337274-1.97072V837.555846c0-0.98536 0-1.47804 1.055743-1.47804h4.786033q0.633446 0 0.844594 1.126126a38.217884 38.217884 0 0 1 0 5.137947 17.384563 17.384563 0 0 1 7.038285-5.560245 21.114853 21.114853 0 0 1 8.445941-1.618805 16.047288 16.047288 0 0 1 4.786033 0.703829 9.783215 9.783215 0 0 1 3.800674 2.181868 9.923981 9.923981 0 0 1 2.533782 4.082205 19.425665 19.425665 0 0 1 0.914977 6.334456v28.153137c0 1.829954 0 2.744931-0.844594 2.744931zM674.549179 840.652691v28.153138a6.052925 6.052925 0 0 0 1.126125 3.941439 4.504502 4.504502 0 0 0 3.519142 1.47804h2.533783l2.181868-0.422297s0.351914 0 0.49268 0.633445a5.771393 5.771393 0 0 1 0 1.407657v2.181868a23.367104 23.367104 0 0 1-3.378377 0.633446 33.431851 33.431851 0 0 1-4.574885 0 10.979724 10.979724 0 0 1-4.645267-0.844594 7.038284 7.038284 0 0 1-2.744931-2.252251 8.516324 8.516324 0 0 1-1.337274-3.167228 17.454945 17.454945 0 0 1-0.351914-3.589525v-28.716201H661.598735v-3.800673c0-0.49268 0-0.703828 0.844594-0.703829h5.349097v-9.431301c0-0.422297 0-0.633446 0.49268-0.703828h1.196508l3.800673-0.844595c0.703828 0 1.055743 0 1.055743 0.914977v10.346279h9.64245c0.633446 0 0.914977 0 0.914977 0.844594v3.167228c0 0.422297 0 0.633446-1.055743 0.633445zM712.978212 839.948862s0 0.422297-0.49268 0.422298a14.076569 14.076569 0 0 0-3.871057 0.492679 19.707196 19.707196 0 0 0-3.519142 1.337274 16.962265 16.962265 0 0 0-5.349096 4.222971 7.742113 7.742113 0 0 0-1.97072 4.856416v26.886247a0.49268 0.49268 0 0 1-0.563063 0.49268h-4.71565a1.126126 1.126126 0 0 1-1.126126-0.49268 3.307994 3.307994 0 0 1 0-1.548423V837.555846a2.956079 2.956079 0 0 1 0-1.126126s0.422297-0.351914 0.914977-0.351914H696.790157c0.633446 0 0.914977 0 0.914977 1.055743v7.038284a21.114853 21.114853 0 0 1 7.038285-6.615987 17.31418 17.31418 0 0 1 7.67173-1.900337v0.422297zM736.837996 879.22249a31.320366 31.320366 0 0 1-8.586707-1.055743 13.37274 13.37274 0 0 1-6.123308-3.589525 16.258437 16.258437 0 0 1-3.73029-7.038285 38.569799 38.569799 0 0 1-1.266892-10.627809 35.684102 35.684102 0 0 1 1.337274-10.62781 18.369922 18.369922 0 0 1 3.94144-7.038284 14.428483 14.428483 0 0 1 6.334456-3.941439 28.153138 28.153138 0 0 1 8.445941-1.196509 17.80686 17.80686 0 0 1 14.076569 5.278714 26.112035 26.112035 0 0 1 4.786033 17.595711 24.633995 24.633995 0 0 1-4.856416 16.469585 17.80686 17.80686 0 0 1-14.3581 5.771394z m12.035466-26.745481a17.595711 17.595711 0 0 0-2.674548-10.064747 10.346278 10.346278 0 0 0-9.220153-3.941439 12.176232 12.176232 0 0 0-8.797855 3.378376 14.639632 14.639632 0 0 0-3.519142 10.909341v8.234793a18.018008 18.018008 0 0 0 0.98536 6.404839 12.035466 12.035466 0 0 0 2.674548 4.293353 10.275895 10.275895 0 0 0 3.941439 2.4634 14.710014 14.710014 0 0 0 4.856416 0.774211 10.346278 10.346278 0 0 0 8.65709-4.011822 17.31418 17.31418 0 0 0 3.167228-10.909341zM765.765345 878.72981h-1.055743a2.815314 2.815314 0 0 1 0-1.407657v-57.362018a0.98536 0.98536 0 0 1 1.126126-1.126126h5.560244a4.363736 4.363736 0 0 1 0 1.126126v56.869338a13.231975 13.231975 0 0 1 0 1.548422s0 0.351914-0.563063 0.351915z" fill="#13227a" p-id="19967"></path><path d="M713.541274 632.460238H387.950237V218.820263h325.591037zM394.143927 626.407313h313.485188V224.873187H394.143927z" fill="#13227a" p-id="19968"></path><path d="M543.355557 344.453639h121.058492v6.052925H543.355557zM543.355557 299.338236h121.058492v6.052925H543.355557zM505.419204 362.119733h-68.271359a3.026462 3.026462 0 0 1-3.026462-3.026462v-68.271359a3.026462 3.026462 0 0 1 3.026462-3.026462h68.271359a3.026462 3.026462 0 0 1 3.026462 3.026462V358.952505a3.026462 3.026462 0 0 1-3.026462 3.167228z m-65.244896-6.052924h62.218434v-62.288817h-62.218434z" fill="#13227a" p-id="19969"></path><path d="M480.151763 352.266135l53.70211-57.784315-10.416661-9.64245-52.71675 56.587807-18.510688-19.847962-10.416661 9.712833 19.566431 20.974087h18.792219z" fill="#13227a" p-id="19970"></path><path d="M470.720462 348.043164a3.026462 3.026462 0 0 1-2.181868-0.985359L444.819575 321.649598l4.434119-4.152588 21.466768 23.085573 55.743212-59.825418 4.43412 4.152588-57.925081 62.148052a3.026462 3.026462 0 0 1-2.252251 0.985359z" fill="#13227a" p-id="19971"></path><path d="M543.355557 449.183312h121.058492v6.052924H543.355557zM543.355557 403.997526h121.058492v6.052924H543.355557zM505.419204 466.779023h-68.271359a3.026462 3.026462 0 0 1-3.026462-3.026463v-68.271359a3.026462 3.026462 0 0 1 3.026462-3.026462h68.271359a3.026462 3.026462 0 0 1 3.026462 3.026462v68.271359a3.026462 3.026462 0 0 1-3.026462 3.026463z m-65.244896-6.052925h62.218434v-62.218434h-62.218434z" fill="#13227a" p-id="19972"></path><path d="M480.151763 456.925424l53.70211-57.713932-10.416661-9.712832-52.71675 56.587806-18.510688-19.847962-10.416661 9.712833 19.566431 20.974087h18.792219z" fill="#13227a" p-id="19973"></path><path d="M470.720462 452.702454a3.026462 3.026462 0 0 1-2.181868-0.98536l-23.719019-25.408207 4.434119-4.152588 21.466768 23.085573 55.743212-59.825417 4.43412 4.152588-57.925081 62.218434a3.026462 3.026462 0 0 1-2.252251 0.914977z" fill="#13227a" p-id="19974"></path><path d="M543.355557 553.842601h121.058492v6.052924H543.355557zM543.355557 508.656815h121.058492v6.052925H543.355557zM505.419204 571.438312h-68.271359a3.026462 3.026462 0 0 1-3.026462-3.026462v-68.271359a3.026462 3.026462 0 0 1 3.026462-3.026463h68.271359a3.026462 3.026462 0 0 1 3.026462 3.026463v68.271359a3.026462 3.026462 0 0 1-3.026462 3.026462z m-65.244896-6.052925h62.218434v-62.218434h-62.218434z" fill="#13227a" p-id="19975"></path><path d="M480.151763 561.584714l53.70211-57.713933-10.416661-9.712832-52.71675 56.65819-18.510688-19.847962-10.416661 9.642449 19.566431 20.974088h18.792219z" fill="#13227a" p-id="19976"></path><path d="M470.720462 557.432126a3.026462 3.026462 0 0 1-2.181868-0.98536l-23.719019-25.478589 4.434119-4.152588 21.466768 23.085573 55.743212-59.825418 4.43412 4.152588-57.925081 62.218434a3.026462 3.026462 0 0 1-2.252251 0.98536z" fill="#13227a" p-id="19977"></path><path d="M631.052581 171.100694h-42.229707v-1.266891a38.217884 38.217884 0 0 0-76.435768 0v1.266891h-42.229707A11.683552 11.683552 0 0 0 458.755378 182.995395v48.634545h183.980755V182.995395a11.753935 11.753935 0 0 0-11.683552-11.894701z m-80.236442 14.076569a15.273077 15.273077 0 1 1 15.273077-15.273077 15.273077 15.273077 0 0 1-15.34346 15.273077z" fill="#13227a" p-id="19978"></path><path d="M645.762595 234.515637h-190.033679V182.995395a14.780397 14.780397 0 0 1 14.710015-14.710015h39.132861a41.244347 41.244347 0 0 1 82.41831 0h39.062479a14.780397 14.780397 0 0 1 14.780397 14.780398z m-183.980754-6.052925h177.92783V182.995395a8.727473 8.727473 0 0 0-8.727473-8.727473h-45.115403v-3.941439a35.191422 35.191422 0 1 0-70.382844-0.422297v4.293353h-44.974638A8.727473 8.727473 0 0 0 461.781841 182.995395z m88.963915-40.32937a18.299539 18.299539 0 1 1 18.299539-18.299539 18.369922 18.369922 0 0 1-18.299539 18.369922z m0-30.616537A12.246615 12.246615 0 1 0 563.062753 169.833803a12.316998 12.316998 0 0 0-12.316997-12.246615zM306.446904 617.116778H269.566293v-161.880542h36.880611z m-30.827686-6.052925h24.774761V461.078012h-24.774761z" fill="#13227a" p-id="19979"></path><path d="M308.276858 461.078012H267.454808V315.315142h40.82205z m-34.557977-6.052924h28.153138v-133.727404h-28.153138z" fill="#13227a" p-id="19980"></path><path d="M330.799368 461.078012h-17.595711v-105.574266h-10.979724v-29.490412H330.799368z m-11.683552-6.052924h5.630627V332.066259H308.276858v17.666094h10.979723zM288.006598 660.683758a3.026462 3.026462 0 0 1-2.885696-2.041102l-15.413843-43.637364a3.026462 3.026462 0 0 1 2.885697-4.011822h30.827685a3.026462 3.026462 0 0 1 2.885697 4.011822l-15.413843 43.637364a3.026462 3.026462 0 0 1-2.885697 2.041102z m-11.120489-43.637363l11.120489 31.461131 11.12049-31.461131zM746.480445 660.050313H355.081449V190.385594h103.744312v6.052924H361.134373v457.55887h379.293148V196.438518H642.736133v-6.052924h103.744312v469.664719z" fill="#13227a" p-id="19981"></path><path d="M760.134717 684.754691H316.300502a18.158774 18.158774 0 0 1 0-36.317548H760.134717a18.158774 18.158774 0 0 1 0 36.317548z" fill="#13227a" p-id="19982"></path></svg>