<?xml version="1.0" standalone="no"?><!DOCTYPE svg PUBLIC "-//W3C//DTD SVG 1.1//EN" "http://www.w3.org/Graphics/SVG/1.1/DTD/svg11.dtd"><svg t="1654324668823" class="icon" viewBox="0 0 1024 1024" version="1.1" xmlns="http://www.w3.org/2000/svg" p-id="5502" xmlns:xlink="http://www.w3.org/1999/xlink" width="200" height="200"><defs><style type="text/css">@font-face { font-family: feedback-iconfont; src: url("//at.alicdn.com/t/font_1031158_u69w8yhxdu.woff2?t=1630033759944") format("woff2"), url("//at.alicdn.com/t/font_1031158_u69w8yhxdu.woff?t=1630033759944") format("woff"), url("//at.alicdn.com/t/font_1031158_u69w8yhxdu.ttf?t=1630033759944") format("truetype"); }
</style></defs><path d="M820.1472 896a52.0704 52.0704 0 0 0 37.0688-15.2576l125.696-125.184c20.5312-20.48 20.6592-53.76 0.3072-74.3936a52.1984 52.1984 0 0 0-74.0352-0.3072L870.4 719.4624V179.2a51.2 51.2 0 0 0-47.36-51.072L819.2 128a51.2 51.2 0 0 0-51.2 51.2v665.6a51.2 51.2 0 0 0 51.712 51.2zM640 268.8a51.2 51.2 0 1 0 0-102.4H76.8a51.2 51.2 0 1 0 0 102.4z m0 307.2a51.2 51.2 0 1 0 0-102.4H76.8a51.2 51.2 0 1 0 0 102.4z m0 307.2a51.2 51.2 0 1 0 0-102.4H76.8a51.2 51.2 0 1 0 0 102.4z" p-id="5503" fill="#13227a"></path></svg>